<svg width="70" height="32" viewBox="0 0 70 32" fill="none" xmlns="http://www.w3.org/2000/svg">
<path d="M67.6856 13.1057C67.3556 15.7608 65.5603 20.6815 64.6073 22.6476C62.0485 27.9193 58.6306 31.9696 52.0446 31.9696C48.5267 31.9696 45.6324 30.8474 43.9398 28.6905C41.4616 30.8626 38.3947 32 35.0916 32C32.5472 32 30.2983 31.2653 28.5836 29.9062C26.6914 31.2395 24.1383 31.9829 21.3079 31.9829C18.9441 31.9829 16.8168 31.3345 15.152 30.1351C13.3103 31.357 10.8975 31.9646 8.0641 31.8977C3.35023 31.7863 0.095468 28.7962 0.00230101 24.455C-0.120908 18.6885 4.73518 8.13367 7.02405 4.47886C8.7368 1.6656 11.3512 0.151726 14.555 0.151726C18.0318 0.151726 19.292 1.14462 19.9123 2.40903C22.5951 0.131195 26.1514 0 28.6833 0C31.4783 0 33.2317 0.741913 34.7232 1.92913C36.7839 0.693238 39.1476 0.0513353 41.9617 0.0513353C45.561 0.0513353 48.2347 0.887557 50.0991 2.73188C52.2743 0.921781 54.9982 0.0965891 58.0465 0.0965891C62.0777 0.0965891 64.7302 1.55037 66.2881 3.71717C68.4819 6.77457 68.0899 9.85212 67.6856 13.1057Z" fill="#EA2A2D"/>
<path d="M67.3293 1.67208V1.1686H67.67C67.9203 1.1686 68.0499 1.25606 68.0499 1.41882C68.0499 1.54735 67.9667 1.67208 67.7122 1.67208H67.3293ZM68.5561 2.71707L68.3424 2.34706C68.1583 2.02421 68.107 1.97364 67.9492 1.91774V1.90823C68.2595 1.87172 68.4447 1.67208 68.4447 1.39486C68.4447 1.10205 68.2602 0.880731 67.8663 0.880731H66.9509V2.71745H67.3305V1.96489H67.4C67.5624 1.96489 67.6271 1.98352 67.7005 2.05653C67.7746 2.13183 67.8853 2.28774 67.9507 2.41627L68.099 2.71631H68.5561V2.71707ZM67.6525 0.370023C68.4405 0.370023 69.0809 1.00584 69.0809 1.793C69.0809 2.57941 68.4397 3.21827 67.6525 3.21827C66.8669 3.21827 66.2334 2.57865 66.2334 1.793C66.233 1.0066 66.8665 0.370023 67.6525 0.370023ZM67.6525 0.0201721C66.673 0.0201721 65.8828 0.811899 65.8828 1.793C65.8828 2.77335 66.673 3.56356 67.6525 3.56356C68.6352 3.56356 69.4254 2.77335 69.4254 1.793C69.4261 0.810759 68.6352 0.0201721 67.6525 0.0201721Z" fill="#EA2A2D"/>
<path d="M58.0073 1.91886C54.1848 1.91886 51.5442 3.43387 49.7565 5.55161C49.4542 4.91807 49.2253 4.64047 48.9016 4.27503C47.4376 2.62008 45.086 1.84851 41.9282 1.84851C38.843 1.84851 36.2705 2.81174 34.4847 4.32903C33.5576 2.82124 31.3475 1.82303 28.6817 1.82303C25.1992 1.82303 21.4041 2.31548 19.1525 5.94291C19.0981 4.63629 18.9802 3.94533 18.2459 3.16844C17.3534 2.22422 15.9091 1.9778 14.5021 1.9778C11.9395 1.9778 10.0118 3.09732 8.62385 5.37668C6.6103 8.59266 1.7295 19.1741 1.83977 24.2998C1.91127 27.6109 4.13206 29.9963 8.10706 30.091C11.2127 30.1652 13.6488 29.335 15.198 27.7698C16.5887 29.2814 18.7102 30.1675 21.2497 30.1675C24.0766 30.1675 26.9207 29.3179 28.6011 27.4633C30.0169 29.2019 32.243 30.2135 35.1072 30.1998C38.8518 30.1812 42.14 28.4053 44.2882 25.6852C45.4674 28.8939 48.4544 30.1675 51.7198 30.1675C58.8735 30.1675 62.0142 25.2475 64.6335 17.4698C65.2237 15.7186 66.0109 12.7928 66.1413 10.3351C66.3569 6.24523 64.6267 1.91886 58.0073 1.91886ZM10.4077 21.4744C14.1089 20.8318 15.0398 22.1688 14.9231 23.4085C14.574 27.1177 11.1705 27.9482 8.21544 27.8782C6.0726 27.8261 4.14537 26.845 4.09137 24.3576C3.99744 20.0039 8.43713 9.93274 10.5271 6.59546C11.4926 5.01048 12.6688 4.22674 14.5439 4.22674C16.3213 4.22674 16.7617 5.13901 16.7362 6.2323C16.6659 9.14899 11.9539 18.012 10.4077 21.4744ZM22.4609 18.055C22.2156 18.7174 21.7528 20.1066 21.3771 21.5782C22.5917 21.2732 23.5028 21.0633 25.0638 21.101C26.842 21.1447 27.9786 21.8817 27.9786 23.3518C27.9786 26.9173 24.0382 27.9634 21.3048 27.9634C18.3033 27.9634 15.6673 26.2556 15.6673 22.9731C15.6673 19.1262 17.7531 13.2917 19.7103 9.40454C22.114 4.63173 24.5699 3.99743 28.8 3.99743C30.6588 3.99743 32.8009 4.79296 32.8009 6.54793C32.8009 8.98053 30.7394 9.90878 28.6962 10.0259C27.8235 10.0765 26.4803 10.124 25.6772 10.0666C25.6772 10.0666 24.9973 11.1028 24.2748 12.9491C28.0592 12.4159 29.664 13.275 29.0248 15.4646C28.1612 18.422 25.5989 18.6167 22.4609 18.055ZM41.0741 8.85428C40.0508 8.85428 39.3807 9.50189 38.883 10.202C37.7855 11.7428 35.4095 17.9154 35.0403 20.4503C34.7867 22.1874 35.5366 22.5411 36.356 22.5411C37.671 22.5411 39.1454 21.15 39.6481 18.8559C39.6481 18.8559 37.1451 18.7942 37.8345 16.5742C38.505 14.4203 39.777 13.9537 41.8856 13.867C46.0405 13.6978 45.6298 16.7643 45.2978 18.4007C44.2182 23.7127 40.4375 27.979 35.0894 27.979C31.4285 27.979 29.1556 25.9544 29.1556 22.2213C29.1556 19.5601 30.4755 15.3843 31.522 12.9407C33.7481 7.73894 36.0838 4.09896 42.0331 4.09896C45.6028 4.09896 48.4179 5.38163 48.0053 8.72537C47.7023 11.1793 46.474 12.6209 44.2425 12.7947C43.6177 12.8437 41.0653 12.7791 41.9118 10.3628C42.2073 9.51824 42.3294 8.85428 41.0741 8.85428ZM63.5422 13.2445C62.9139 16.3765 61.4989 20.0815 59.963 22.8419C57.4578 27.3474 54.4141 27.9778 51.7583 27.9463C49.1005 27.914 46.107 26.9332 46.0838 22.8347C46.0675 19.8929 47.3368 15.7395 48.4145 13.0168C50.2923 8.08119 52.2112 4.05714 58.2788 4.12939C65.3545 4.21305 64.0924 10.5054 63.5422 13.2445ZM57.5399 8.95658C56.9323 8.94859 56.4025 9.06723 55.926 9.80192C54.856 11.1884 51.7267 19.7396 51.7822 21.444C51.8024 22.0566 52.1404 22.5928 52.8956 22.5928C53.7611 22.5936 54.243 21.9954 54.6677 21.2725C55.653 19.6065 58.421 12.0486 58.4975 10.159C58.5191 9.60951 58.4275 8.96875 57.5399 8.95658Z" fill="black"/>
</svg>
