<svg width="119" height="32" viewBox="0 0 119 32" fill="none" xmlns="http://www.w3.org/2000/svg">
<path d="M112.492 15.232L118.825 32C116.959 31.7334 115.093 31.3995 113.194 31.0987L109.625 21.8337L105.959 30.3339C104.16 30.033 102.392 29.9328 100.593 29.6992L107.026 15.0326L101.191 0H106.592L109.858 8.39896L113.359 0H118.824L112.492 15.232ZM96.9268 0H92.0266V29.0667C93.6266 29.167 95.2926 29.2331 96.9268 29.4325V0ZM87.7929 28.7329C83.3269 28.4331 78.8596 28.1675 74.2932 28.0662V0.000128779H79.2928V23.3333C82.1599 23.3995 85.026 23.6321 87.7929 23.7654V28.7329ZM68.9588 11.3674V16.3669H62.1258V27.7333H57.1935V0H71.1935V4.99945H62.1268V11.3676H68.9598L68.9588 11.3674ZM48.7924 4.99945V28C47.1252 28 45.4261 28 43.7919 28.0662V4.99945H38.6251V0H53.9912V4.99945H48.7924ZM33.2256 16.6326C31.0261 16.6326 28.4255 16.6326 26.5589 16.7339V24.1664C29.4922 23.9659 32.4255 23.7333 35.3918 23.6331V28.4331L21.5594 29.5339V0H35.3909V4.99945H26.5587V11.7333C28.4926 11.7333 31.459 11.6331 33.2254 11.6331V16.6336L33.2256 16.6326ZM5.52413 13.8325V31.2992C3.72573 31.4997 2.12462 31.7333 0.425385 32V0H5.19239L11.6917 18.1676V0H16.6922V29.9328C14.9258 30.2337 13.1253 30.3339 11.2256 30.5995L5.52413 13.8325Z" fill="#EA2A2D"/>
</svg>
