<svg width="479" height="176" viewBox="0 0 479 176" fill="none" xmlns="http://www.w3.org/2000/svg">
<path d="M108.513 32.1629C110.169 34.5163 111.333 37.1032 112.003 39.9265L113.778 39.2866L109.814 14.7992C109.025 15.3851 108.207 15.8241 107.359 16.1162C106.511 16.41 105.85 16.5684 105.377 16.595C104.904 16.6207 104.372 16.6348 103.78 16.6348H68.2856H66.5691C66.4894 16.6348 66.1645 16.6118 65.5935 16.564C65.0208 16.5171 64.5773 16.4224 64.263 16.2826C63.4733 15.8586 62.8227 15.3648 62.311 14.7992L58.0511 39.2902L59.8251 39.715C60.1801 38.1166 60.9494 36.1854 62.1321 33.9277C63.1183 32.0452 64.1045 30.6097 65.0907 29.622C67.0622 27.7404 68.8965 26.4101 70.5927 25.6339C72.2871 24.8578 74.3196 24.4692 76.686 24.4692V74.8176C76.686 76.8364 76.6063 78.3374 76.4487 79.3243C76.2911 80.3093 75.798 81.2723 74.9694 82.2113C73.5893 83.761 72.1304 84.5345 70.5927 84.5345C70.2377 84.5345 69.9606 84.5584 69.764 84.6053V87.2879H102.183V84.5345C100.92 84.5345 99.8755 84.3602 99.0478 84.007C98.2192 83.6539 97.4597 82.9609 96.7691 81.9272C96.0795 80.8926 95.6254 79.7172 95.4094 78.4012C95.1916 77.086 95.0836 75.6053 95.0836 73.96V72.5501L95.0252 24.4692C97.8642 24.4692 100.358 25.0932 102.508 26.3393C104.658 27.5872 106.658 29.5281 108.513 32.1629Z" fill="#EA2A2D"/>
<path d="M199.601 54.0566C197.987 53.0689 196.492 52.3396 195.115 51.8687C193.738 51.3988 192.695 51.1395 191.987 51.0917C191.279 51.0465 190.689 51.0218 190.216 51.0218L195.869 31.1826L202.493 56.1745C201.745 55.5151 200.781 54.8097 199.601 54.0566ZM145.359 41.6907C143.071 44.0449 140.428 45.8327 137.431 47.0559L135.361 47.8321V30.1161C135.361 28.9408 135.509 27.9168 135.805 27.045C136.1 26.175 136.622 25.5528 137.372 25.1749C138.713 24.5164 140.152 24.1872 141.691 24.1872C143.939 24.1872 145.792 24.7988 147.251 26.0219C148.947 27.4336 149.795 29.3647 149.795 31.8101C149.795 35.3388 148.316 38.6329 145.359 41.6907ZM246.122 87.2882V84.5375C245.188 84.3507 244.429 84.056 243.846 83.6569C243.26 83.2577 242.804 82.6824 242.472 81.9293C242.141 81.1779 241.908 80.3911 241.772 79.5689C241.634 78.7458 241.567 77.7483 241.567 76.5721L241.627 29.3391L268.787 67.4075C270.363 69.6165 271.426 71.3556 271.978 72.6239C272.804 74.4568 273.217 76.4084 273.217 78.4758C273.217 81.5788 272.25 83.5046 270.318 84.256C269.804 84.4446 269.293 84.5375 268.781 84.5375V87.2882H286.645V84.5366C285.817 84.4446 285.057 84.1746 284.368 83.7268C283.678 83.2816 283.145 82.6816 282.77 81.9293C282.395 81.177 282.149 80.2955 282.032 79.2856C281.912 78.2749 281.854 77.3925 281.854 76.6411V29.6789C281.854 28.3637 281.942 26.9176 282.12 25.3431C282.298 23.7677 282.741 22.4392 283.452 21.3595C284.043 20.4656 284.693 19.9018 285.404 19.6673C285.877 19.5726 286.349 19.4788 286.823 19.385V16.6351H268.957V19.3867C269.915 19.5283 270.722 19.7762 271.381 20.1284C272.04 20.4807 272.607 21.0462 273.086 21.8224C273.565 22.5986 273.864 23.3172 273.983 23.9748C274.102 24.635 274.163 25.5989 274.163 26.8689V27.7159V43.6679L262.272 25.8812C261.878 25.2696 261.601 24.7758 261.444 24.3978C261.09 23.5995 260.912 22.8703 260.912 22.2109C260.912 21.741 261.05 21.2816 261.327 20.8338C261.601 20.3877 261.888 20.0355 262.184 19.7761C262.48 19.5177 262.824 19.3867 263.218 19.3867V16.6351H229.381V19.3867C230.839 19.6239 231.984 20.2806 232.812 21.3613C233.205 21.879 233.482 22.8198 233.64 24.1819C233.798 25.5458 233.877 26.9786 233.877 28.4823V30.2462V73.4682C233.877 75.8658 233.699 78.0156 233.344 79.9193C233.005 81.7408 232.447 82.9639 231.673 83.6011C231.514 83.4878 231.354 83.3772 231.184 83.2338C230.712 82.8347 230.218 82.1399 229.706 81.1531C229.548 80.8247 229.331 80.3787 229.054 79.814L213.674 24.7457C213.437 23.9005 213.298 23.4305 213.26 23.3367C213.142 22.8667 213.082 22.4428 213.082 22.0666C213.082 21.6914 213.16 21.3152 213.319 20.9391C213.674 20.1408 214.324 19.7407 215.271 19.7407V16.6351H189.064V19.3168C189.34 19.4106 189.606 19.5283 189.863 19.6691C190.119 19.8107 190.374 20.1054 190.631 20.5523C190.888 20.9993 191.016 21.5524 191.016 22.2109C191.016 22.6818 190.937 23.1986 190.779 23.7633C190.621 24.3279 190.443 24.8926 190.248 25.4581L173.859 75.641C173.385 77.1934 172.891 78.405 172.38 79.2759C172.26 79.4795 172.124 79.6866 171.976 79.8954C171.548 78.8741 171.098 77.6864 170.619 76.2871C168.489 69.99 166.971 65.9232 166.063 64.0894C164.367 60.7059 162.74 57.6614 161.184 54.9584C159.625 52.2564 157.801 49.3287 155.711 46.1788C156.026 46.1788 157.169 45.4973 159.142 44.1343C161.745 42.3014 163.854 40.3039 165.472 38.1417C167.72 35.0856 168.844 31.8189 168.844 28.339C168.844 27.9646 168.804 27.353 168.726 26.506C168.371 23.311 166.98 20.8647 164.555 19.1734C162.13 17.4821 158.609 16.6351 153.995 16.6351H112.584V19.3867C113.413 19.3867 114.123 19.5629 114.714 19.9169C115.305 20.27 115.828 20.9161 116.282 21.8551C116.735 22.7959 117.041 24.5111 117.199 27.0034C117.238 27.8008 117.257 28.9284 117.257 30.3861L117.141 76.5686C117.141 78.1661 117.022 79.4582 116.785 80.445C116.548 81.4336 116.035 82.3028 115.247 83.0542C114.656 83.6179 114.153 84.0073 113.739 84.218C113.324 84.4304 112.782 84.5348 112.111 84.5348V87.2882H140.33V84.5348C139.225 84.2525 138.535 84.041 138.26 83.9003C137.667 83.5719 137.056 82.9356 136.425 81.993C135.953 81.2885 135.627 80.453 135.449 79.4883C135.272 78.5245 135.182 77.2899 135.182 75.7826V55.8789L138.318 54.1141C139.502 56.0435 140.694 57.9959 141.897 59.9731C143.1 61.9485 144.096 63.7602 144.885 65.4073C147.566 71.1485 149.203 74.7949 149.795 76.3482C150.662 78.6537 151.097 80.4415 151.097 81.7115C151.097 82.6541 150.86 83.2878 150.387 83.617C149.519 84.2295 148.553 84.6056 147.488 84.7472V87.2882H166.525H177.303H186.165V84.6764C185.416 84.5348 184.746 84.2649 184.154 83.8657C183.562 83.4657 183.029 82.8417 182.557 81.9948C182.358 81.6195 182.261 80.9362 182.261 79.9485C182.261 77.9262 182.519 76.0676 183.035 74.3736L187.21 60.0333C188.553 60.0333 190.259 60.2563 192.332 60.7024C194.404 61.1484 195.973 61.6529 197.039 62.2167C199.764 63.6717 202.231 65.8772 204.441 68.835C206.493 71.5592 207.658 74.0249 207.936 76.2305C208.014 76.7004 208.054 77.3571 208.054 78.2023C208.054 80.738 207.264 82.57 205.688 83.6958C205.174 84.0242 204.406 84.3065 203.381 84.541V87.2882H228.908H234.024H246.122Z" fill="#EA2A2D"/>
<path d="M392.164 87.4289C392.993 87.5227 393.741 87.6873 394.412 87.9227L396.423 88.6281L404.113 61.5962L402.103 60.3961C401.432 63.5008 399.855 66.7242 397.37 70.0661C395.161 73.077 392.854 75.4064 390.449 77.0526C388.83 78.1359 387.046 79.0059 385.094 79.6653C383.142 80.3246 381.238 80.653 379.386 80.653C377.69 80.653 376.191 80.36 374.889 79.7706C373.589 79.1829 372.583 78.3014 371.872 77.1234C371.163 75.9481 370.709 74.8188 370.511 73.7355C370.314 72.654 370.216 71.3361 370.216 69.7838V68.6536V66.9596V46.7726H377.789C378.655 46.7726 379.72 47.0912 380.982 47.7258C382.245 48.3613 383.368 49.1976 384.356 50.2322C385.34 51.2677 386.228 52.6794 387.017 54.4672C387.647 55.9257 388.042 57.1259 388.201 58.0658L390.449 57.6427L386.484 30.7507L384.71 31.387V32.4446C384.71 34.4687 384.041 36.1857 382.706 37.5974C382.038 38.2567 381.342 38.7161 380.616 38.9736C379.888 39.2329 379.132 39.3621 378.348 39.3621H370.039V31.6684C370.039 30.2117 370.205 28.9407 370.542 27.8566C370.876 26.775 371.459 25.8581 372.287 25.105C373.55 23.9748 375.502 23.411 378.143 23.411C380.51 23.411 382.916 23.8809 385.36 24.8217C387.805 25.7634 389.916 27.1521 391.691 28.9868C394.766 32.234 396.758 36.1857 397.666 40.8437L399.618 39.0798L395.299 15.2226C394.628 15.5376 394.096 15.7394 393.703 15.8288C393.623 15.8288 393.091 15.9173 392.106 16.0961C390.212 16.4563 388.535 16.6351 387.076 16.6351H386.012H346.967V19.3867C347.835 19.3867 348.506 19.4699 348.978 19.6336C349.452 19.8 349.925 20.1992 350.399 20.8337C350.871 21.4701 351.157 22.1038 351.257 22.7401C351.353 23.3747 351.404 24.3049 351.404 25.5289V26.3051V76.418C351.404 77.8775 351.315 79.0652 351.137 79.983C350.961 80.8999 350.555 81.8062 349.925 82.7001C349.452 83.3125 349.047 83.7232 348.712 83.9347C348.376 84.1471 347.617 84.3702 346.435 84.6056V87.2882H389.561C390.468 87.2882 391.336 87.3342 392.164 87.4289Z" fill="#EA2A2D"/>
<path d="M340.948 55.722C340.948 54.2661 341.037 53.0686 341.215 52.1278C341.393 51.1896 341.795 50.3196 342.427 49.5213C343.611 47.9238 345.01 47.1255 346.628 47.1255V44.7262H318.291V47.3379H319.237C320.382 47.3379 321.405 47.8548 322.312 48.8868C322.786 49.4505 323.112 50.0373 323.29 50.6489C323.468 51.2596 323.556 52.3623 323.556 53.959V70.7907C323.556 73.5609 323.042 75.7691 322.017 77.4126C320.794 79.3385 318.902 80.2996 316.339 80.2996C310.579 80.2996 305.926 76.8665 302.377 69.9951C299.339 64.1609 297.822 57.6912 297.822 50.5843C297.822 50.0205 297.831 49.5497 297.852 49.1735C297.871 48.7974 297.9 48.3964 297.94 47.9725C298.492 41.0568 300.012 35.4093 302.496 31.0328C305.492 25.7632 309.575 23.1284 314.741 23.1284C318.054 23.1284 321.82 24.2852 326.04 26.6014C327.735 27.5475 329.431 29.2246 331.127 31.6337C333.337 34.7535 334.775 37.4476 335.446 39.7151L336.925 38.7955L334.501 14.517C333.79 15.1763 333.1 15.8348 332.429 16.4933C331.561 17.0579 330.437 17.3403 329.057 17.3403C327.835 17.3403 326.494 17.1535 325.034 16.7756C322.195 16.0693 319.671 15.5649 317.463 15.2577C315.253 14.9533 312.888 14.7993 310.363 14.7993C305.708 14.7993 301.431 15.4941 297.527 16.8818C293.621 18.2704 290.191 20.4707 287.232 23.4807C285.024 25.7783 283.23 28.3529 281.834 31.1947V66.8682C282.804 69.1419 283.948 71.2934 285.28 73.3122C288.908 78.8181 293.347 82.6291 298.59 84.747C302.811 86.4409 308.47 87.2879 315.569 87.2879H345.148V84.6107C344.203 84.3283 343.481 84.0124 342.989 83.6593C342.496 83.307 342.051 82.7087 341.659 81.8626C341.263 81.0183 341.026 80.1952 340.948 79.3969V76.7196V55.722Z" fill="#EA2A2D"/>
<path d="M4.5468 103.414C4.94163 103.326 5.44358 103.283 6.0491 103.283C10.4737 103.989 14.8062 104.698 19.0448 105.406C23.2826 106.114 27.1026 106.468 30.5029 106.468C34.7407 106.468 43.0365 105.523 47.6939 103.635C53.3764 101.334 57.415 98.0915 60.8623 93.9017C65.0549 88.7676 67.2805 82.6033 67.2805 75.4061C67.2805 69.9365 66.0544 64.52 63.0285 59.9107C61.7387 57.9468 60.0407 56.3166 58.1241 54.9766C54.6264 52.5348 50.6188 50.9966 46.6183 49.5938C42.0397 47.9874 37.4965 46.3032 32.948 44.6083C29.7513 43.4162 26.4634 42.7887 23.9696 40.2327C20.3205 36.4916 21.3129 30.3874 24.6628 26.795C26.2173 25.1267 28.9377 23.8292 31.1208 23.3133C39.0546 21.4387 44.7061 25.1303 52.0096 32.2106C53.7306 33.8798 55.5507 37.6315 55.5507 37.6315L59.6078 14.8416C59.1422 15.1381 57.2017 16.4046 56.3625 17.0542C54.8 18.2632 52.1778 16.6976 50.6241 16.1356C48.5287 15.378 46.3952 14.7266 44.2281 14.2062C39.8708 13.1618 35.4011 12.6609 30.9216 12.6609C27.408 12.6609 23.5774 12.9184 20.1567 13.7141C17.6443 14.3 14.9673 15.5665 12.7426 16.8489C5.5321 21.0051 2.0831 28.3863 0.530337 36.2597C-0.419556 41.0788 -0.149549 46.0607 1.82814 50.5965C4.63887 57.0449 9.6309 62.5234 16.1801 65.2281C16.1801 65.2281 38.5084 72.6642 38.5092 72.6642C40.1213 73.2014 41.991 74.7795 42.9737 76.1389C46.5174 81.0358 44.8017 89.1818 40.4382 93.0008C33.5942 98.9925 21.2784 96.7817 14.5255 91.7051C10.8234 88.9198 8.86691 84.7282 7.28582 80.5013C7.19287 80.2561 5.5144 75.6149 5.60647 75.6149H2.28671L6.10352e-05 106.468C0.511746 105.995 2.61337 104.653 3.14985 104.211C3.68455 103.768 4.15109 103.504 4.5468 103.414Z" fill="#EA2A2D"/>
<path d="M437.883 47.8518C434.959 50.868 431.58 53.1603 427.749 54.7286L425.103 55.7242V33.0113C425.103 31.5041 425.291 30.1925 425.67 29.0756C426.047 27.9595 426.715 27.1603 427.675 26.6771C429.388 25.8327 431.227 25.4115 433.193 25.4115C436.067 25.4115 438.438 26.1956 440.303 27.7639C442.47 29.5738 443.554 32.0475 443.554 35.1832C443.554 39.7076 441.664 43.9301 437.883 47.8518ZM458.113 64.8597C456.119 61.3947 453.788 57.643 451.117 53.6046C451.519 53.6046 452.981 52.7301 455.503 50.9822C458.83 48.6333 461.527 46.0728 463.595 43.3C466.469 39.3837 467.906 35.1948 467.906 30.7332C467.906 30.2527 467.853 29.4694 467.753 28.3843C467.3 24.2866 465.523 21.1518 462.423 18.9834C459.321 16.815 454.822 15.7291 448.925 15.7291H395.988V19.2569C397.046 19.2569 397.954 19.4834 398.71 19.9366C399.466 20.3888 400.134 21.2172 400.714 22.4227C401.293 23.6263 401.685 25.8257 401.886 29.0207C401.936 30.0438 401.962 31.4908 401.962 33.3574L401.812 92.5642C401.812 94.6122 401.659 96.2681 401.356 97.5337C401.054 98.8002 400.399 99.9154 399.391 100.878C398.635 101.602 397.992 102.099 397.463 102.37C396.934 102.643 396.241 102.777 395.383 102.777V106.306H431.454V102.777C430.044 102.415 429.159 102.144 428.809 101.962C428.052 101.54 427.27 100.726 426.464 99.5198C425.859 98.6135 425.442 97.5435 425.215 96.3062C424.99 95.0706 424.875 93.4873 424.875 91.5561V66.0385L428.883 63.7772C430.396 66.2509 431.921 68.7539 433.458 71.2868C434.997 73.8207 436.27 76.144 437.277 78.2548C440.706 85.6148 442.799 90.2887 443.554 92.2801C444.662 95.2361 445.219 97.5284 445.219 99.1569C445.219 100.365 444.916 101.179 444.311 101.6C443.201 102.386 441.966 102.868 440.606 103.048V106.306H478.719V103.233C477.306 102.93 476.122 102.54 475.164 102.057C473.854 101.395 472.19 98.1108 470.175 92.204C467.451 84.1288 465.509 78.9168 464.35 76.5653C462.182 72.2268 460.103 68.3255 458.113 64.8597Z" fill="#EA2A2D"/>
<path d="M128.109 100.137C127.319 100.728 126.502 101.17 125.655 101.464C124.806 101.76 124.146 101.921 123.672 101.947C123.199 101.974 122.667 101.986 122.076 101.986H86.5803H84.8646C84.7859 101.986 84.4601 101.963 83.8891 101.916C83.3163 101.869 82.8728 101.774 82.5576 101.63C81.768 101.205 81.1173 100.706 80.6056 100.137L76.3457 124.825L78.1207 125.253C78.4765 123.641 79.245 121.695 80.4286 119.419C81.413 117.522 82.3992 116.075 83.3854 115.079C85.3577 113.182 87.1911 111.841 88.8873 111.058C90.5826 110.277 92.6143 109.885 94.9806 109.885V160.637C94.9806 162.672 94.9009 164.186 94.7451 165.18C94.5867 166.174 94.0936 167.146 93.2658 168.091C91.8839 169.653 90.4259 170.434 88.8873 170.434C88.5323 170.434 88.2561 170.458 88.0596 170.505V173.209H120.478V170.434C119.216 170.434 118.17 170.258 117.343 169.901C116.514 169.545 115.755 168.847 115.066 167.805C114.374 166.762 113.921 165.578 113.705 164.25C113.487 162.924 113.379 161.431 113.379 159.774V158.352L113.32 109.885C116.16 109.885 118.654 110.514 120.803 111.771C122.952 113.026 124.954 114.983 126.808 117.64C128.464 120.012 129.627 122.62 130.298 125.466L132.073 124.821L128.109 100.137Z" fill="#EA2A2D"/>
<path d="M164.974 107.727C165.688 107.865 166.222 107.981 166.579 108.073C167.568 108.394 168.242 108.83 168.599 109.383C169.113 110.21 169.48 111.106 169.698 112.073C169.915 113.037 170.025 114.76 170.025 117.245V123.589H152.259V117.038C152.259 113.866 152.872 111.336 154.101 109.452C154.536 108.808 155.13 108.36 155.883 108.108C156.635 107.855 157.25 107.727 157.726 107.727V105.037H129.086V107.727C129.997 107.865 130.749 108.083 131.344 108.382C131.938 108.681 132.473 109.21 132.947 109.969C133.423 110.728 133.72 111.474 133.839 112.209C133.958 112.945 134.017 114.071 134.017 115.589V116.555L134.136 161.656C134.136 163.171 133.937 164.771 133.542 166.448C133.145 168.128 132.75 169.172 132.353 169.587C131.601 170.322 131.076 170.77 130.779 170.932C130.482 171.093 129.937 171.265 129.145 171.448V174.069H157.547V171.379C155.922 171.379 154.576 170.667 153.507 169.245C152.952 168.465 152.605 167.707 152.466 166.973C152.327 166.238 152.259 165.229 152.259 163.945V130.622H169.905V164.081C169.905 165.184 169.817 166.159 169.639 167.007C169.46 167.856 169.133 168.626 168.658 169.314C167.667 170.692 166.341 171.379 164.677 171.379V174.069H193.495V171.379C191.989 171.379 190.801 170.875 189.929 169.863C189.494 169.312 189.167 168.474 188.949 167.35C188.731 166.225 188.623 164.996 188.623 163.663L188.504 116.817C188.504 115.304 188.593 113.995 188.771 112.892C188.949 111.789 189.315 110.778 189.871 109.86C190.425 108.942 191.138 108.344 192.01 108.069C192.524 107.977 193.059 107.862 193.615 107.723V105.037H164.974V107.727Z" fill="#EA2A2D"/>
<path d="M196.778 107.724C197.887 107.909 198.738 108.126 199.333 108.378C199.927 108.631 200.382 109.011 200.699 109.516C201.294 110.434 201.67 111.467 201.828 112.615C201.987 113.765 202.066 115.326 202.066 117.3V163.87C202.066 165.018 201.977 166.007 201.799 166.833C201.621 167.66 201.273 168.416 200.759 169.106C199.689 170.622 198.361 171.379 196.778 171.379V174.069H225.596V171.379C224.842 171.379 224.17 171.208 223.576 170.863C222.982 170.518 222.466 170.093 222.03 169.588C221.594 169.082 221.268 168.268 221.05 167.143C220.832 166.017 220.723 164.789 220.723 163.457V117.093C220.723 115.395 220.792 114.006 220.931 112.927C221.069 111.846 221.416 110.87 221.971 109.998C222.366 109.356 222.782 108.885 223.219 108.586C223.654 108.287 224.487 108 225.715 107.724V105.037H196.778V107.724Z" fill="#EA2A2D"/>
<path d="M282.306 168.833C281.929 168.099 281.682 167.237 281.564 166.251C281.445 165.264 281.386 164.401 281.386 163.666V117.782C281.386 116.498 281.475 115.084 281.653 113.545C281.831 112.007 282.277 110.71 282.989 109.655C283.584 108.781 284.238 108.23 284.95 108L286.377 107.725V105.037H268.432V107.727C269.394 107.865 270.206 108.108 270.867 108.451C271.527 108.797 272.098 109.348 272.581 110.107C273.061 110.864 273.361 111.566 273.481 112.209C273.6 112.854 273.661 113.796 273.661 115.037V115.865V131.451L261.718 114.071C261.323 113.474 261.044 112.992 260.887 112.624C260.529 111.842 260.351 111.131 260.351 110.486C260.351 110.026 260.489 109.578 260.768 109.141C261.044 108.705 261.332 108.36 261.629 108.108C261.926 107.855 262.272 107.727 262.669 107.727V105.037H228.682V107.727C230.147 107.959 231.296 108.6 232.128 109.656C232.524 110.161 232.801 111.08 232.96 112.412C233.118 113.744 233.198 115.145 233.198 116.614V118.337V160.567C233.198 162.91 233.02 165.01 232.663 166.869C232.307 168.73 231.713 169.958 230.88 170.555C230.405 170.877 230.028 171.071 229.751 171.14C229.473 171.21 228.958 171.291 228.207 171.383V174.069H245.497V171.383C244.558 171.2 243.796 170.911 243.209 170.522C242.623 170.131 242.163 169.569 241.831 168.835C241.499 168.099 241.264 167.331 241.127 166.528C240.99 165.723 240.923 164.749 240.923 163.599L240.981 117.45L268.263 154.645C269.843 156.804 270.912 158.503 271.465 159.743C272.295 161.533 272.71 163.438 272.71 165.458C272.71 168.491 271.74 170.373 269.798 171.106C269.283 171.291 268.768 171.383 268.254 171.383V174.069H286.198V171.381C285.367 171.291 284.604 171.027 283.91 170.591C283.217 170.154 282.683 169.568 282.306 168.833Z" fill="#EA2A2D"/>
<path d="M391.623 133.105L377.364 127.794C374.868 126.877 373.025 125.68 371.837 124.209C370.886 123.015 370.411 121.657 370.411 120.14C370.411 119.129 370.549 118.164 370.828 117.245C370.986 116.691 371.243 116.049 371.601 115.313C372.154 114.118 373.005 113.233 374.155 112.658C375.302 112.083 376.651 111.796 378.195 111.796C379.978 111.796 381.84 112.164 383.78 112.899C385.722 113.635 387.444 114.602 388.949 115.796C390.812 117.267 392.534 119.727 394.119 123.175C394.792 124.6 395.188 125.658 395.307 126.347L397.446 125.589L395.427 103.176C395.031 103.407 394.476 103.773 393.764 104.279C392.813 104.832 391.901 105.244 391.03 105.521C390.91 105.566 390.693 105.589 390.377 105.589C387.683 104.992 385.068 104.395 382.533 103.796C379.997 103.2 377.699 102.901 375.639 102.901C374.056 102.901 372.55 103.062 371.125 103.383C365.262 104.763 360.528 107.314 356.923 111.037C352.884 115.222 350.863 120.325 350.863 126.347C350.863 130.716 352.011 134.439 354.309 137.519C356.408 140.323 359.34 142.439 363.102 143.863L378.79 149.864C380.215 150.415 381.354 151.322 382.206 152.588C383.057 153.851 383.485 155.334 383.485 157.035C383.485 157.772 383.443 158.346 383.365 158.758C382.89 161.518 381.582 163.656 379.443 165.171C377.305 166.689 374.729 167.449 371.719 167.449C368.985 167.449 366.182 166.758 363.312 165.379C360.438 164 357.954 162.024 355.855 159.449C354.388 157.656 353.1 155.218 351.991 152.138C351.12 149.75 350.625 147.864 350.507 146.484L348.368 146.759L350.685 175.311C351.12 174.941 351.566 174.586 352.021 174.241C352.476 173.896 352.874 173.688 353.21 173.619C353.546 173.552 353.972 173.517 354.487 173.517C358.251 174.069 361.934 174.62 365.539 175.172C369.143 175.723 372.392 176 375.284 176C378.888 176 382.672 175.264 386.633 173.793C391.465 172 395.347 169.473 398.278 166.207C401.843 162.207 403.626 157.403 403.626 151.794C403.626 147.104 402.566 143.174 400.448 140.002C398.328 136.83 395.387 134.53 391.623 133.105Z" fill="#EA2A2D"/>
<path d="M344.315 168.645C343.919 167.799 343.682 166.976 343.604 166.178V163.501V142.503C343.604 141.047 343.693 139.85 343.87 138.911C344.048 137.971 344.451 137.101 345.082 136.303C346.267 134.707 347.666 133.908 349.284 133.908V131.507H320.947V134.119H321.893C323.037 134.119 324.061 134.636 324.968 135.67C325.443 136.233 325.768 136.819 325.946 137.429C326.123 138.042 326.212 139.144 326.212 140.74V157.573C326.212 160.344 325.699 162.551 324.673 164.194C323.451 166.119 321.557 167.082 318.994 167.082C313.236 167.082 308.583 163.648 305.033 156.776C301.995 150.942 300.478 144.472 300.478 137.365C300.478 136.802 300.487 136.332 300.508 135.955C300.527 135.579 300.556 135.179 300.596 134.755C301.147 127.838 302.667 122.192 305.152 117.815C308.148 112.546 312.231 109.911 317.397 109.911C320.71 109.911 324.476 111.068 328.696 113.383C330.39 114.329 332.087 116.007 333.784 118.417C335.993 121.535 337.432 124.23 338.102 126.496L339.58 125.577L337.157 101.298C336.446 101.958 335.756 102.617 335.085 103.276C334.217 103.839 333.093 104.123 331.714 104.123C330.491 104.123 329.149 103.935 327.69 103.558C324.851 102.852 322.327 102.346 320.119 102.04C317.909 101.734 315.544 101.582 313.019 101.582C308.365 101.582 304.087 102.277 300.182 103.663C296.277 105.051 292.846 107.252 289.889 110.263C287.68 112.56 285.885 115.134 284.49 117.976V153.651C285.46 155.924 286.605 158.075 287.936 160.093C291.563 165.599 296.002 169.41 301.247 171.528C305.467 173.222 311.126 174.069 318.225 174.069H347.804V171.392C346.858 171.11 346.138 170.794 345.645 170.44C345.151 170.09 344.707 169.49 344.315 168.645Z" fill="#EA2A2D"/>
<path d="M0 122.964H71.2641V116.513H0V122.964Z" fill="#EA2A2D"/>
<path d="M396.083 122.964H478.855V116.513H396.083V122.964Z" fill="#EA2A2D"/>
<path d="M475.537 4.76837e-06H0V5.84393H475.537V4.76837e-06Z" fill="#EA2A2D"/>
</svg>
